<?xml version="1.0" encoding="utf-8" ?>
<svg xmlns="http://www.w3.org/2000/svg" xmlns:xlink="http://www.w3.org/1999/xlink" width="1024" height="1024" viewBox="0 0 1024 1024"><path fill="#FEFEFD" d="M439.632 484.002C447.079 484.019 457.383 483.688 464.527 484.318C468.688 493.241 473.039 502.074 477.578 510.81C480.012 515.572 482.563 521.325 485.759 525.509C487.235 524.004 492.287 516.933 493.862 514.913C501.736 504.817 508.8 494.304 516.921 484.364C525.018 484.356 533.01 484.582 541.105 484.202C540.832 491.226 537.542 506.279 536.481 514.742C535.228 524.93 534.098 535.133 533.091 545.348C532.476 551.364 532.03 559.259 530.588 564.957C522.433 565.272 514.545 565.128 506.396 565.026C507.079 562.397 507.339 560.299 507.722 557.628C508.434 546.078 510.831 536.682 511.108 523.468C505.443 530.297 493.493 544.882 489.474 552.136C484.932 552.131 480.39 552.07 475.849 551.953C470.239 544.117 465.381 531.766 459.527 522.966C459.586 529.061 458.223 537.045 457.383 543.297C456.434 550.632 455.564 557.977 454.773 565.331C446.171 565.331 437.57 565.224 428.971 565.011C430.013 558.168 432.013 550.918 433.134 543.475C436.199 523.128 437.992 504.493 439.632 484.002Z"/><path fill="#FEFEFD" d="M199.148 484.013L270.988 484.074C270.891 490.008 268.817 495.816 268.773 503.5C254.372 503.745 237.233 502.616 223.147 503.569C222.266 507.148 221.52 511.372 220.78 515.024C232.696 514.996 250.521 514.473 261.995 515.319C260.894 521.449 259.633 527.55 258.214 533.614C247.185 533.832 236.155 533.965 225.125 534.012C223.132 533.929 222.143 533.742 220.273 534.313C217.499 536.804 218.133 541.44 217.405 545.958L263.9 545.979C262.425 552.14 261.15 558.987 259.864 565.235L189.933 565.121C192.258 537.35 198.512 512.744 199.148 484.013Z"/><path fill="#FEFEFD" d="M850.97 484.021C857.675 484.873 869.968 484.539 877.017 484.526L919.921 484.42C919.987 490.6 920.206 497.265 919.168 503.317C904.7 503.833 888.545 503.179 873.584 503.536C873.334 507.721 872.878 510.785 872.145 514.891C885.278 514.992 898.412 514.989 911.545 514.881C911.628 521.018 911.508 527.602 909.071 533.304C896.087 533.458 883.023 533.292 870.062 533.607C868.298 536.048 868.419 541.785 867.847 545.509C880.529 546.51 899.838 545.803 913.092 545.754C913.205 551.093 911.601 559.938 910.076 565.039C902.961 565.418 893.629 565.241 886.353 565.294C871.311 565.478 856.266 565.372 841.228 564.976C843.992 537.235 847.443 511.502 850.97 484.021Z"/><path fill="#FEFEFD" d="M555.559 484.626C577.142 483.794 603.546 484.56 625.618 484.469C625.693 490.096 624.154 497.309 623.334 503.098C611.12 504.035 590.91 503.075 577.573 503.503C575.772 508.056 576.043 510.075 576.04 514.908C588.45 515.329 602.614 515.028 615.158 515.048C615.203 520.62 613.98 527.432 613.338 533.168C604.184 533.784 588.465 533.227 578.705 533.301L573.793 533.162C573.369 537.396 572.849 541.619 572.233 545.83C584.371 546.122 605.986 546.398 617.714 545.276C617.399 551.63 616.309 558.226 615.956 564.95C591.936 566.009 567.773 564.76 543.985 565.114C547.877 547.697 549.585 529.174 551.868 511.494C552.723 504.871 553.771 490.197 555.559 484.626Z"/><path fill="#FEFEFD" d="M721.818 484.035C735.521 484.297 768.968 482.312 779.93 485.784C786.529 487.875 792.483 491.747 795.624 498.117C798.985 504.936 799.139 513.171 796.617 520.279C793.142 530.071 786.202 534.566 777.285 538.73C782.974 547.595 788.983 556.214 794.825 564.976C787.196 565.203 773.774 565.795 766.392 564.938C762.372 558.553 757.773 551.689 754.669 544.803C753.893 543.275 753.861 543.149 752.718 541.763C749.202 540.064 745.287 541.4 741.251 542.128C740.064 550.059 739.458 556.942 737.723 564.968C730.142 565.308 721.07 564.984 713.249 565.058C715.228 551.73 716.571 535.748 718.678 522.924C734.293 523.056 749.909 522.918 765.519 522.508C773.079 517.581 774.416 510.597 767.983 504.05C752.028 503.746 736.071 503.559 720.114 503.487C721.256 496.562 721.458 491.05 721.818 484.035Z"/><path fill="#FEFEFD" d="M101.066 484.037L127.107 483.978C132.849 499.14 137.067 520.402 143.124 535.597C151.396 517.974 161.562 501.821 169.338 484.102C178.052 483.845 187.426 484.007 196.187 484.002C194.543 488.957 188.801 498.619 186.025 503.591C181.998 511.307 177.382 518.687 173.128 526.289L151.724 564.947C143.48 565.051 135.235 565.025 126.992 564.87C120.343 543.451 112.12 522.119 105.594 500.585C103.962 495.199 101.746 489.651 101.066 484.037Z"/><path fill="#FEFEFD" d="M282.046 484.56C290.156 484.518 298.438 484.39 306.529 484.646C306.339 495.843 303.246 511.481 301.698 523.03C300.692 530.623 299.826 538.234 299.099 545.859C312.096 545.344 330.901 546.678 343.09 545.199C345.153 544.628 354.536 545.028 358.531 544.453C359.78 545.264 361.201 546.256 362.505 546.91C360.044 549.819 355.923 555.985 353.978 559.405C352.025 561.152 350.158 563.144 348.321 565.025C341.073 565.449 332.119 565.218 324.732 565.253C306.858 565.385 288.983 565.287 271.112 564.957C272.879 557.537 274.451 545.54 275.562 537.729C277.994 520.04 280.155 502.315 282.046 484.56Z"/><path fill="#FEFEFD" d="M635.061 484.145C661.496 483.818 688.404 484.063 714.875 484.062C714.482 488.233 713.637 498.857 712.065 502.261C709.747 503.549 689.215 503.253 684.951 503.331C683.284 513.292 680.468 533.327 679.741 542.938C678.242 550.461 678.322 557.342 676.105 565.107C668.156 565.201 660.206 565.189 652.257 565.068C652.414 557.473 654.151 549.508 655.267 541.972C657.141 529.315 659.312 516.301 660.478 503.577C654.351 504.145 638.127 503.577 631.341 503.523C631.498 500.315 633.316 486.272 635.061 484.145Z"/><path fill="#FEFEFD" d="M811.809 484.51C819.434 484.78 828.321 484.573 836.045 484.585C833.156 511.735 829.005 537.332 826.963 565.009C818.616 565.108 810.269 565.087 801.923 564.947C802.984 545.387 806.998 522.416 809.333 502.725C809.797 498.82 810.869 487.33 811.809 484.51Z"/><path fill="#F35211" d="M412.495 488.425C420.659 493.808 427.211 505.338 428.881 514.57C433.351 539.29 417.255 564.01 392.16 568.266C380.728 570.205 367.315 568.787 357.802 562.31C356.482 561.402 355.206 560.433 353.978 559.405C355.923 555.985 360.044 549.819 362.505 546.91C375.93 558.888 395.431 557.632 407.261 543.972C412.707 537.65 415.411 529.418 414.775 521.098C414.054 512.73 410.233 505.983 404.448 500.067C407.666 496.109 409.691 492.013 412.495 488.425Z"/><path fill="#F35211" d="M336.377 525.466C336.485 512.751 341.575 500.585 350.556 491.583C364.378 477.781 387.789 472.433 404.716 483.777C402.206 486.777 398.642 491.327 395.878 493.873C383.839 490.807 379.143 490.022 367.841 496.534C350.876 506.309 345.168 528.904 358.531 544.453C354.536 545.028 345.153 544.628 343.09 545.199C338.09 539.91 336.565 532.546 336.377 525.466Z"/><path fill="#F35211" d="M407.995 488.496C407.596 492.902 388.978 520.944 385.756 526.832C385.27 527.719 381.078 526.885 380.186 526.705C379.354 525.629 377.666 522.871 378.571 521.673C384.728 513.511 400.369 493.802 407.995 488.496Z"/></svg>
